<svg xmlns="http://www.w3.org/2000/svg" width="42" height="25" fill="none" viewBox="0 0 42 25">
    <g fill="#B5B5B5" clip-path="url(#prefix__clip0)">
        <path d="M4.088 15.122V.935h1.195V8.76c.252-.314.573-.567.939-.738.366-.172.766-.257 1.17-.25.472-.011.94.097 1.359.314.364.19.655.496.825.87.19.515.275 1.063.249 1.612v4.556H8.63v-4.556c.042-.477-.096-.951-.387-1.33-.144-.144-.316-.255-.505-.327-.19-.071-.392-.102-.594-.09-.352 0-.698.097-.997.282-.3.173-.535.44-.666.76-.15.425-.217.873-.2 1.322v3.934l-1.194.003zM16.803 12.806l1.233.157c-.156.676-.538 1.28-1.081 1.712-.676.453-1.486.664-2.297.598-.81-.065-1.576-.403-2.17-.958-.642-.758-.967-1.734-.905-2.725-.065-1.02.262-2.028.915-2.817.299-.329.666-.589 1.076-.762.41-.173.854-.254 1.298-.239.433-.013.864.067 1.262.236.4.17.756.424 1.047.745.638.774.957 1.763.893 2.764 0 .072 0 .181-.006.326h-5.252c-.004.663.23 1.306.656 1.813.186.204.414.366.668.475.255.108.529.161.805.155.403.011.797-.113 1.121-.352.35-.296.607-.688.737-1.127zm-3.919-1.97h3.932c-.012-.487-.169-.96-.45-1.36-.174-.225-.399-.406-.656-.528s-.54-.183-.824-.176c-.256-.006-.512.041-.75.138-.237.097-.453.241-.633.425-.386.405-.607.941-.619 1.502zM19.849 15.122V.942h1.194v14.18H19.85zM23.235 22.547V7.933h1.082v.934c.225-.335.522-.616.869-.822.36-.192.765-.286 1.173-.274.567-.01 1.123.155 1.592.474.472.332.835.797 1.042 1.336.239.602.358 1.245.35 1.893.012.682-.12 1.358-.387 1.986-.23.555-.623 1.027-1.128 1.353-.462.305-1.002.469-1.555.471-.373.007-.741-.082-1.07-.257-.303-.16-.568-.381-.78-.65v8.172l-1.188-.002zm1.082-10.978c-.058.726.136 1.45.55 2.05.156.206.358.373.589.488.231.115.486.175.744.175.265-.001.526-.064.763-.183.236-.119.442-.291.6-.503.426-.625.626-1.376.567-2.13.054-.728-.14-1.454-.553-2.057-.152-.209-.35-.38-.58-.498-.23-.119-.484-.183-.742-.186-.265.008-.526.076-.76.202-.234.125-.436.303-.59.52-.432.619-.64 1.368-.588 2.122z"/>
        <path d="M30.431 21.802c-.305.277-.655.5-1.035.658-.34.13-.703.195-1.068.192-.525.035-1.043-.133-1.448-.47-.166-.152-.297-.338-.384-.545-.087-.207-.129-.431-.122-.656-.002-.265.06-.526.18-.76.121-.236.297-.439.513-.591.212-.146.447-.255.695-.323.283-.069.571-.119.86-.15.587-.054 1.166-.168 1.729-.34v-.258c.016-.153 0-.308-.048-.455-.047-.146-.125-.282-.227-.397-.314-.244-.707-.363-1.103-.334-.353-.028-.707.056-1.01.24-.253.226-.422.531-.48.866l-.947-.133c.064-.361.21-.704.426-1.002.223-.272.52-.475.855-.586.416-.145.855-.215 1.296-.207.404-.013.807.047 1.19.176.259.087.49.239.673.442.152.197.255.428.3.673.041.302.058.606.05.91v1.323c-.015.582.005 1.164.06 1.743.042.245.123.481.241.7h-1.012c-.102-.227-.164-.469-.184-.716zm-.08-2.208c-.511.186-1.042.311-1.583.374-.287.03-.57.097-.841.197-.133.06-.25.151-.338.267-.088.116-.147.252-.169.396-.022.145-.008.292.042.43.05.137.132.26.241.356.244.192.55.286.858.264.348.006.692-.08.995-.25.28-.154.505-.394.641-.683.12-.316.174-.652.156-.99l-.002-.361zM33.063 24.766l-.107-.928c.18.054.367.083.554.088.179.008.356-.03.516-.11.13-.073.24-.18.318-.307.118-.237.217-.483.296-.735.018-.056.047-.136.085-.24l-2.163-5.844h1.043l1.189 3.377c.153.428.292.878.414 1.351.11-.45.243-.893.398-1.329l1.22-3.399h.97l-2.175 5.931c-.153.452-.334.893-.542 1.322-.136.285-.339.532-.592.721-.236.156-.514.235-.797.228-.214-.006-.426-.049-.627-.126zM20.967 18.631H3.871v1.996h17.096v-1.996zM38.026 15.396H30.04v-1.019c-.063-1.167.16-2.332.65-3.392.491-1.061 1.235-1.985 2.165-2.692l.233-.208c.14-.128.304-.27.48-.422.834-.721 2.384-2.062 2.384-2.965 0-1.164-1.108-1.579-2.145-1.579-.501.061-.984.227-1.416.488-.433.26-.804.61-1.092 1.025L29.61 3.49c.475-.689 1.099-1.263 1.825-1.679.727-.416 1.537-.663 2.372-.724 2.464 0 4.183 1.488 4.183 3.617 0 1.834-1.857 3.442-3.088 4.505l-.695.613c-.574.412-1.056.94-1.413 1.55-.357.61-.581 1.29-.659 1.992h5.889l.002 2.033z"/>
    </g>
    <defs>
        <clipPath id="prefix__clip0">
            <path fill="#fff" d="M.002.935h41.99v24H.002v-24z"/>
        </clipPath>
    </defs>
</svg>
