<svg xmlns="http://www.w3.org/2000/svg" width="42" height="25" fill="none" viewBox="0 0 42 25">
    <g clip-path="url(#prefix__clip0)">
        <path fill="url(#prefix__paint0_linear)" d="M41.812 1.294H.122v23.4h41.69v-23.4z"/>
        <path fill="#D3D3D3" d="M41.692 1.535v22.8H.302v-22.8h41.39zm.3-.6H.002v24h41.99v-24z"/>
        <path fill="#434343" d="M4.077 15.095V.935h1.2v7.8c.6-.6 1.32-.96 2.16-.96.48 0 .96.12 1.32.36.36.24.72.48.84.84s.24.84.24 1.56v4.56h-1.2v-4.56c0-.6-.12-1.08-.36-1.32s-.6-.36-1.08-.36c-.36 0-.72.12-.96.24-.36.24-.48.48-.72.72-.12.36-.24.72-.24 1.32v3.96h-1.2zM16.797 12.814l1.2.12c-.24.72-.6 1.32-1.08 1.68-.48.36-1.2.6-2.04.6-1.08 0-1.8-.36-2.4-.96-.6-.6-.96-1.56-.96-2.76 0-1.2.36-2.16.96-2.76.6-.72 1.44-.96 2.4-.96s1.68.36 2.28.96c.6.6.84 1.56.84 2.76v.36h-5.28c0 .84.24 1.44.6 1.8.36.48.84.6 1.44.6.48 0 .84-.12 1.08-.36.48-.24.84-.6.96-1.08zm-3.96-1.92h3.96c0-.6-.24-1.08-.48-1.32-.36-.48-.84-.72-1.44-.72s-.96.24-1.44.6c-.36.24-.48.72-.6 1.44zM19.797 15.095V.935h1.2v14.16h-1.2zM23.277 22.534V7.894h1.08v.96c.24-.36.6-.6.84-.84.36-.24.72-.24 1.2-.24.6 0 1.08.12 1.56.48s.84.72 1.08 1.32c.24.6.36 1.2.36 1.92s-.12 1.44-.36 2.04c-.24.6-.6 1.08-1.08 1.32-.48.36-.96.48-1.56.48-.36 0-.72-.12-1.08-.24-.36-.12-.6-.36-.72-.6v8.04h-1.32zm1.08-10.92c0 .96.24 1.56.6 2.04s.84.72 1.32.72c.48 0 .96-.24 1.32-.72.36-.48.6-1.2.6-2.16 0-.96-.24-1.56-.6-2.04s-.84-.72-1.32-.72c-.48 0-.96.24-1.32.72-.48.48-.6 1.2-.6 2.16z"/>
        <path fill="#434343" d="M30.477 21.815c-.36.36-.72.48-1.08.6-.36.12-.72.24-1.08.24-.6 0-1.08-.12-1.44-.48-.36-.36-.48-.72-.48-1.2 0-.24.12-.6.24-.84s.24-.48.48-.6l.72-.36c.24 0 .48-.12.84-.12.84-.12 1.32-.24 1.68-.36v-.24c0-.36-.12-.72-.24-.84-.24-.24-.6-.36-1.08-.36-.48 0-.84.12-.96.24-.24.12-.36.48-.48.84l-.96-.12c.12-.36.24-.72.48-.96s.48-.48.84-.6.84-.24 1.32-.24c.48 0 .84 0 1.2.12s.48.24.72.48c.12.12.24.36.36.72v2.4c0 .96 0 1.56.12 1.8 0 .24.12.48.24.72h-1.32c-.12-.36-.12-.6-.12-.84zm-.12-2.16c-.36.12-.84.24-1.56.36-.36 0-.72.12-.84.24s-.24.12-.36.36c-.12.12-.12.24-.12.48s.12.48.24.6c.24.12.48.24.84.24s.72-.12.96-.24.48-.36.6-.72c.12-.24.12-.6.12-.96v-.36h.12zM33.117 24.815l-.12-.96c.24 0 .36.12.6.12s.36 0 .48-.12.24-.12.36-.36c.12-.12.12-.36.24-.72 0 0 0-.12.12-.24l-2.16-5.88h1.08l1.2 3.36c.12.48.24.84.36 1.32.12-.48.24-.84.36-1.32l1.2-3.36h.96l-2.16 5.88c-.24.6-.36 1.08-.6 1.32-.12.36-.36.6-.6.72s-.48.24-.84.24c-.12.12-.36 0-.48 0z"/>
        <path fill="#B2C84F" d="M20.877 18.694H3.837v2.04h17.04v-2.04zM38.037 15.455h-8.04v-.96c0-3.6 1.68-5.04 2.76-6.12l.36-.24c.12-.12.36-.24.48-.48.84-.72 2.4-2.04 2.4-3 0-1.2-1.08-1.56-2.16-1.56-1.44 0-2.52 1.44-2.52 1.56l-1.68-1.2c.12-.12 1.68-2.4 4.2-2.4 2.52 0 4.2 1.44 4.2 3.6 0 1.8-1.8 3.48-3.12 4.56l-.72.6c-.96.84-1.8 1.68-2.04 3.6h5.88v2.04z"/>
    </g>
    <defs>
        <linearGradient id="prefix__paint0_linear" x1="20.997" x2="20.997" y1="2.542" y2="23.308" gradientUnits="userSpaceOnUse">
            <stop stop-color="#fff"/>
            <stop offset=".506" stop-color="#EFF7F7"/>
            <stop offset="1" stop-color="#C6C6C6"/>
        </linearGradient>
        <clipPath id="prefix__clip0">
            <path fill="#fff" d="M.002.935h41.99v24H.002v-24z"/>
        </clipPath>
    </defs>
</svg>
