<svg xmlns="http://www.w3.org/2000/svg" width="109" height="25" fill="none" viewBox="0 0 109 25">
    <path fill="#B5B5B5" d="M28.414 9.547c-.773-.721-1.74-1.202-2.782-1.381-1.042-.18-2.114-.051-3.084.37-.97.422-1.796 1.117-2.376 2.002-.58.884-.889 1.919-.889 2.976 0 1.058.309 2.092.889 2.977.58.884 1.406 1.58 2.376 2 .97.422 2.042.551 3.084.372 1.042-.18 2.01-.66 2.782-1.382v1.573h2.81V8.244h-2.81v1.303zm-3.677 6.642c-.529 0-1.046-.157-1.485-.451-.44-.294-.784-.712-.986-1.2-.202-.49-.255-1.027-.152-1.546.103-.519.358-.995.732-1.369s.85-.629 1.37-.732c.518-.103 1.056-.05 1.545.152.488.203.906.545 1.2.985.294.44.45.957.45 1.486 0 .71-.282 1.39-.784 1.89-.5.502-1.18.784-1.89.785zM14.098 5.523H6.646v13.531h2.81v-3.311h4.642s4.38.217 4.38-5.078-4.38-5.142-4.38-5.142zm0 7.933H9.457v-5.65h4.64s1.744-.173 1.744 2.943c0 2.902-1.743 2.705-1.743 2.705v.002zM40.279 14.511v.581c-.171.19-.842.561-2.448.561-1.606 0-2.284-.387-2.449-.579V8.237h-2.75V15.4c.022.309.36 3.005 5.196 3.005.825.013 1.65-.09 2.447-.303v.513c-.147.2-1.016 1.09-4.769 1.09v2.752c7.109 0 7.513-3.036 7.522-3.664V8.954h-2.753l.004 5.557z"/>
    <path fill="#B5B5B5" d="M63.04 6.59c1.368-.598 2.79-1.066 4.247-1.398h-27.02v2.753h6.186v11.24h2.752V7.945h11.197s1.003-.548 2.637-1.355zM86.317 14.835l.007-3.486h5.237V8.596H86.33l.007-4.117h-2.753v4.119h-7.572c-.921-.073-1.834.219-2.543.811-.332.314-.593.695-.765 1.119-.171.423-.249.88-.228 1.336-.018.442.062.882.235 1.29.172.407.433.771.763 1.066.796.624 1.808.906 2.812.785h3.058l.187-.013c.097-.006.196.007.289.037.037.095.052.198.044.3.01.1-.007.2-.051.29-.188.086-.396.12-.601.098h-8.078c.068-.182.119-.37.153-.562l.019-6.168h-2.753v5.78c-.108.331-.57 1.211-2.415 1.211-1.812 0-2.31-.676-2.416-.864v-4.623c-.54.35-1.044.753-1.506 1.202-.676.675-1.246 1.351-1.246 1.351v2.284l.026.26c.024.13.66 3.142 5.142 3.142.888.065 1.778-.104 2.58-.489.803-.385 1.491-.974 1.996-1.707v1.934l8.365-.006c.054 0 .157.012.297.012.836.015 1.648-.276 2.284-.819.615-.626.958-1.47.954-2.349-.004-.878-.356-1.718-.977-2.339-.664-.541-1.514-.798-2.367-.715h-3.065l-.176.012c-.256.035-.517-.007-.75-.12-.044-.086-.063-.184-.052-.28-.017-.145.014-.292.09-.416.17-.094.367-.13.56-.104h7.71v3.19c-.033.766.233 1.514.742 2.086 1.201 1.42 3.591 2.11 7.303 2.11v-2.752c-4.213 0-5.254-1.024-5.314-1.143z"/>
    <path fill="#B5B5B5" d="M51.511 11.627c1.373 2.108 2.28 4.485 2.66 6.972 0 0 .26 1.503 1.372 1.503s1.634-1.895 1.634-1.895S58.768 8.47 73.498 5.585c0 0-11.157-.153-17.585 7.758-.677-1.117-1.547-2.106-2.57-2.92-.34-.24-1.395-.697-1.896-.218-.635.61.064 1.422.064 1.422zM93.746 7.923c-.292-.127-.542-.336-.72-.601-.177-.266-.275-.577-.281-.896 0-.284.068-.564.2-.816.133-.251.325-.466.56-.627.553-.397 1.223-.6 1.904-.577.675-.024 1.339.18 1.885.577.233.161.424.377.555.628.131.252.2.531.198.815-.01.316-.11.622-.286.885s-.421.472-.709.603c.345.136.643.368.86.668.21.287.322.634.318.99.004.3-.066.598-.204.866-.137.268-.338.498-.584.67-.589.42-1.3.632-2.022.602-.74.03-1.47-.18-2.079-.601-.253-.165-.46-.39-.605-.656-.144-.265-.22-.563-.22-.865-.009-.374.108-.741.33-1.042.223-.302.54-.52.9-.623zm.12 1.63c.002.165.043.327.118.473.076.146.184.272.318.369.31.225.685.346 1.07.346.384 0 .758-.121 1.07-.346.135-.092.246-.217.323-.362.077-.145.117-.307.117-.471 0-.164-.04-.326-.117-.471-.077-.146-.188-.27-.323-.362-.311-.224-.685-.344-1.067-.344-.383 0-.757.12-1.068.344-.134.092-.244.215-.32.358-.077.144-.118.304-.12.466zm.171-3.132c0 .15.036.296.104.428.069.133.168.247.29.333.28.201.617.31.962.31s.681-.109.962-.31c.123-.082.223-.193.293-.323.07-.13.106-.276.106-.424 0-.147-.036-.293-.106-.423s-.17-.241-.293-.323c-.28-.203-.616-.312-.962-.312-.345 0-.682.109-.962.312-.119.082-.217.19-.286.318-.068.127-.106.27-.109.414h.001zM99.829 7.923c-.293-.127-.543-.336-.72-.602-.178-.265-.276-.576-.281-.896-.001-.284.068-.564.2-.815.133-.252.324-.467.56-.627.552-.398 1.221-.6 1.902-.577.675-.025 1.339.178 1.885.577.233.16.424.376.556.627.132.252.2.532.199.815-.012.316-.111.623-.287.886s-.422.471-.71.602c.345.137.643.368.861.669.21.287.322.634.318.989.004.301-.066.599-.204.867-.137.268-.339.498-.586.67-.587.42-1.298.632-2.02.601-.74.031-1.47-.18-2.08-.6-.252-.166-.46-.391-.604-.656-.144-.266-.22-.563-.22-.865-.008-.375.108-.742.331-1.043.223-.301.54-.52.9-.622zm.12 1.63c.002.165.042.327.118.473.076.146.185.272.318.368.311.226.686.347 1.07.347s.757-.121 1.068-.347c.137-.092.249-.216.326-.36.077-.146.118-.308.118-.473 0-.164-.041-.326-.118-.471-.077-.145-.189-.27-.326-.362-.31-.223-.683-.343-1.065-.343-.383 0-.756.12-1.067.343-.135.092-.246.215-.323.358-.078.144-.119.304-.121.467h.002zm.17-3.132c0 .149.037.296.105.428.069.133.169.247.291.332.28.202.617.31.962.31s.681-.108.961-.31c.123-.081.224-.192.294-.323.07-.13.106-.275.106-.423 0-.148-.036-.293-.106-.423s-.171-.242-.294-.324c-.279-.203-.616-.312-.961-.312-.346 0-.682.11-.962.312-.12.082-.218.191-.288.318-.069.128-.107.27-.11.415h.002z"/>
</svg>
