<svg xmlns="http://www.w3.org/2000/svg" width="121" height="25" fill="none" viewBox="0 0 121 25">
    <g fill="#B5B5B5" clip-path="url(#prefix__clip0)">
        <path d="M17.28 14.637c-.12.24-.36.48-.6.48.24 0 .48.24.6.48.12-.24.24-.36.48-.48-.24-.12-.36-.36-.48-.48zM17.28 13.077c-.12.24-.36.48-.6.48.24 0 .48.24.6.48.12-.24.24-.36.48-.48-.24 0-.36-.24-.48-.48zM18.72 11.037l.36-.36-.36-.36-.36.36c.24.12.36.24.36.36zM17.28 12.717c.12-.24.24-.36.48-.48-.24-.12-.36-.24-.48-.48-.12.24-.36.48-.6.48.36 0 .6.12.6.48zM21.84 12.117c-.12 0-.12-.12-.24-.24 0 .12 0 .24-.12.24.12 0 .12.12.24.24 0 0 .12-.12.12-.24zM21.84 10.677l-.24-.24c0 .12 0 .24-.12.24.12 0 .12.12.24.24 0-.12.12-.12.12-.24zM18.72 12.477l.36-.36-.36-.36-.36.36c.24.12.36.24.36.36zM17.28 11.157c.12-.24.24-.36.48-.48-.24-.12-.36-.24-.48-.48-.12.24-.36.48-.6.48.36.12.6.24.6.48zM21.48 13.677c.12 0 .12.12.24.24l.12-.12v-.12l-.12-.12c-.12 0-.12 0-.24.12zM19.92 12.117c.12.12.24.12.24.24.12-.12.12-.24.24-.24-.12-.12-.24-.12-.24-.24 0 .12-.12.24-.24.24zM18.72 14.757l-.36.36.36.36.36-.36-.36-.36zM21.48 15.117c.12 0 .12.12.24.24 0-.12.12-.12.24-.24-.12 0-.12-.12-.24-.24l-.24.24zM19.92 10.677c.12.12.24.12.24.24.12-.12.12-.24.24-.24 0 0-.12-.12-.12-.24-.12.12-.24.24-.36.24zM19.92 15.117c.12.12.24.12.24.24.12-.12.12-.24.24-.24-.12-.12-.24-.12-.24-.24l-.24.24zM18.72 13.317l-.36.36.36.36.36-.36-.36-.36zM19.92 13.677c.12.12.24.12.24.24.12-.12.12-.24.24-.24-.12-.12-.24-.12-.24-.24l-.24.24z"/>
        <path d="M21.84 13.677c-.12.12-.12.12 0 0-.12 0-.24 0-.36-.12.12 0 .12-.12.24-.24l.12.12c.12-2.04 1.2-3.6 1.92-4.44-.24 0-.48.12-.6.36-.12-.24-.48-.36-.72-.36-.36 0-.6.12-.72.36-.12-.24-.36-.36-.72-.36s-.6.24-.72.48c-.12-.24-.36-.36-.72-.36s-.6.24-.72.48c-.24-.24-.48-.36-.72-.36-.36 0-.6.24-.72.6-.24-.36-.48-.6-.84-.6s-.72.36-.72.72.24.72.6.72c-.36 0-.6.36-.6.72s.24.72.6.72c-.36 0-.6.36-.6.72s.24.72.6.72c-.36 0-.6.36-.6.72s.24.72.6.72c-.36 0-.6.36-.6.72s.36.72.72.72.6-.24.72-.48c.12.36.36.6.72.6s.6-.12.72-.48c.12.24.48.48.72.48s.6-.12.72-.36c.12.24.48.48.72.48s.6-.12.72-.36c.12.24.48.36.72.36h.12c-.36-.72-.6-1.68-.6-3zm-.12-3.12c0 .12.12.12.24.24l-.24.24c-.12-.24-.12-.24-.24-.36.12 0 .12-.12.24-.12zm0 1.44c0 .12.12.12.24.24-.12 0-.12.12-.24.24-.12-.12-.12-.24-.24-.36.12 0 .12-.12.24-.12zm-4.44-1.8c.12.24.24.36.48.48-.24.12-.36.24-.48.48-.12-.24-.36-.48-.6-.48.36 0 .6-.24.6-.48zm0 1.44c.12.24.24.36.48.48-.24.12-.36.24-.48.48-.12-.24-.36-.48-.6-.48.36 0 .6-.12.6-.48zm0 3.96c-.12-.24-.36-.48-.6-.48.24 0 .48-.24.6-.48.12.24.24.36.48.48-.24 0-.36.24-.48.48zm0-1.44c-.12-.24-.36-.48-.6-.48.24 0 .48-.24.6-.48.12.24.24.36.48.48-.24 0-.36.24-.48.48zm1.44-3.84l.36.36-.36.36-.36-.36c.24 0 .36-.12.36-.36zm0 1.44l.36.36-.36.36-.36-.36c.24 0 .36-.12.36-.36zm0 3.72l-.36-.36.36-.36.36.36c-.12 0-.24.12-.36.36zm0-1.44l-.36-.36.36-.36.36.36c-.12 0-.24.12-.36.36zm1.56 1.32c-.12-.12-.12-.24-.24-.24.12-.12.24-.12.24-.24.12.12.12.24.24.24-.12 0-.24.12-.24.24zm0-1.44c-.12-.12-.12-.24-.24-.24.12-.12.24-.12.24-.24.12.12.12.24.24.24-.12 0-.24.12-.24.24zm0-1.44c-.12-.12-.12-.24-.24-.24.12-.12.24-.12.24-.24.12.12.12.24.24.24-.12 0-.24.12-.24.24zm0-1.44c-.12-.12-.12-.24-.24-.24.12-.12.24-.12.24-.24.12.12.12.24.24.24-.12 0-.24.12-.24.24zm1.56 4.08c-.12 0-.12.12-.24.24 0-.12 0-.24-.12-.24.12 0 .12-.12.24-.24 0 .12.12.12.12.24zM15.12 9.357c-.36 0-.72.36-.72.72s.36.72.72.72.72-.36.72-.72c0-.48-.36-.72-.72-.72zM15.12 10.797c-.36 0-.72.36-.72.72s.36.72.72.72.72-.36.72-.72c0-.48-.36-.72-.72-.72z"/>
        <path d="M15.12 12.237c-.36 0-.72.36-.72.72s.36.72.72.72.72-.36.72-.72-.36-.72-.72-.72z"/>
        <path d="M15.12 15.117c.398 0 .72-.322.72-.72 0-.397-.322-.72-.72-.72-.398 0-.72.323-.72.72 0 .398.322.72.72.72z"/>
        <path d="M15.12 16.557c.398 0 .72-.322.72-.72 0-.397-.322-.72-.72-.72-.398 0-.72.322-.72.72 0 .398.322.72.72.72zM13.68 9.357c-.36 0-.6.24-.6.6s.24.6.6.6.6-.24.6-.6-.24-.6-.6-.6zM13.68 10.797c-.36 0-.6.24-.6.6s.24.6.6.6.6-.24.6-.6c0-.24-.24-.6-.6-.6zM13.68 13.557c.331 0 .6-.269.6-.6 0-.331-.269-.6-.6-.6-.331 0-.6.269-.6.6 0 .331.269.6.6.6zM13.68 14.997c.331 0 .6-.269.6-.6 0-.332-.269-.6-.6-.6-.331 0-.6.268-.6.6 0 .331.269.6.6.6zM13.68 16.437c.331 0 .6-.269.6-.6 0-.332-.269-.6-.6-.6-.331 0-.6.268-.6.6 0 .331.269.6.6.6zM12.24 9.477c-.36 0-.6.24-.6.6s.24.6.6.6.6-.24.6-.6-.24-.6-.6-.6zM12.24 10.917c-.36 0-.6.24-.6.6s.24.6.6.6.6-.24.6-.6-.24-.6-.6-.6zM12.24 12.357c-.36 0-.6.24-.6.6s.24.6.6.6.6-.24.6-.6-.24-.6-.6-.6zM12.24 13.797c-.36 0-.6.24-.6.6s.24.6.6.6.6-.24.6-.6-.24-.6-.6-.6zM12.24 15.237c-.36 0-.6.24-.6.6s.24.6.6.6.6-.24.6-.6-.24-.6-.6-.6zM10.8 9.477c-.24 0-.48.24-.48.48 0 .36.24.48.48.48s.48-.24.48-.48-.24-.48-.48-.48zM10.8 10.917c-.24 0-.48.24-.48.48s.24.48.48.48.48-.24.48-.48-.24-.48-.48-.48zM10.8 12.357c-.24 0-.48.24-.48.48s.24.48.48.48.48-.24.48-.48-.24-.48-.48-.48zM10.8 13.917c-.24 0-.48.24-.48.48s.24.48.48.48.48-.24.48-.48-.24-.48-.48-.48zM10.8 15.357c-.24 0-.48.24-.48.48s.24.48.48.48.48-.24.48-.48-.24-.48-.48-.48zM9.36 9.597c-.24 0-.36.24-.36.36-.12.24.12.48.36.48s.36-.24.36-.48-.12-.36-.36-.36zM9.36 11.037c-.24 0-.36.24-.36.36 0 .24.24.36.36.36.24.12.36-.12.36-.36s-.12-.36-.36-.36zM9.36 13.317c.199 0 .36-.161.36-.36 0-.199-.161-.36-.36-.36-.199 0-.36.161-.36.36 0 .199.161.36.36.36zM9.36 14.757c.199 0 .36-.161.36-.36 0-.199-.161-.36-.36-.36-.199 0-.36.161-.36.36 0 .199.161.36.36.36zM9.36 16.197c.199 0 .36-.161.36-.36 0-.199-.161-.36-.36-.36-.199 0-.36.161-.36.36 0 .199.161.36.36.36zM7.92 9.597c-.24 0-.36.12-.36.36s.12.36.36.36.36-.12.36-.36c-.12-.12-.24-.36-.36-.36zM7.92 11.157c-.24 0-.36.12-.36.36s.12.36.36.36.24-.24.24-.48-.12-.24-.24-.24zM7.92 13.317c.199 0 .36-.161.36-.36 0-.199-.161-.36-.36-.36-.199 0-.36.161-.36.36 0 .199.161.36.36.36zM7.92 14.757c.199 0 .36-.161.36-.36 0-.199-.161-.36-.36-.36-.199 0-.36.161-.36.36 0 .199.161.36.36.36zM7.92 16.197c.199 0 .36-.161.36-.36 0-.199-.161-.36-.36-.36-.199 0-.36.161-.36.36 0 .199.161.36.36.36zM6.48 9.717c-.12 0-.24.12-.24.24s.12.24.24.24.24-.12.24-.24-.12-.24-.24-.24zM6.48 11.637c.133 0 .24-.107.24-.24 0-.132-.107-.24-.24-.24-.132 0-.24.108-.24.24 0 .133.108.24.24.24zM6.48 13.197c.133 0 .24-.107.24-.24 0-.132-.107-.24-.24-.24-.132 0-.24.108-.24.24 0 .133.108.24.24.24zM6.48 14.637c.133 0 .24-.107.24-.24 0-.132-.107-.24-.24-.24-.132 0-.24.108-.24.24 0 .133.108.24.24.24zM6.48 16.077c.133 0 .24-.107.24-.24 0-.132-.107-.24-.24-.24-.132 0-.24.108-.24.24 0 .133.108.24.24.24zM4.92 9.837s-.12 0-.12.12.12.12.12.12l.12-.12c.12-.12 0-.12-.12-.12zM4.92 11.277l-.12.12.12.24.12-.12s0-.24-.12-.24zM4.92 12.717s-.12.12-.12.24.12.12.12.12l.12-.12s0-.24-.12-.24zM4.92 14.517c.066 0 .12-.054.12-.12s-.054-.12-.12-.12-.12.054-.12.12.054.12.12.12zM4.92 15.957c.066 0 .12-.053.12-.12 0-.066-.054-.12-.12-.12s-.12.054-.12.12c0 .067.054.12.12.12zM3.48 9.957c0 .12 0 .12 0 0 .12.12.12.12.12 0h-.12zM3.48 11.397c0 .12 0 .12 0 0 .12.12.12.12.12 0h-.12zM3.48 12.957c.12.12.24 0 .24 0-.12-.12-.12-.12-.24 0 0-.12 0-.12 0 0zM3.48 14.397c.12.12.24 0 .24 0s-.12-.12-.24 0c0-.12 0-.12 0 0zM3.48 15.837s0 .12 0 0c.12.12.24 0 .24 0-.12-.12-.12-.12-.24 0 0-.12 0-.12 0 0zM30.12 14.637c-.24.48-.48.84-.84 1.08l.72.84-.96.84-.84-.96c-.36.12-.6.24-.84.36-.36.12-.84.12-1.32.12-1.08 0-1.8-.36-2.4-.96-.72-.72-.96-1.8-.72-3.24.48-1.2 1.08-2.28 2.04-3.12.84-.6 1.68-.96 2.64-.96.96 0 1.8.36 2.4.96.72.72.84 1.8.72 3.12-.12.84-.36 1.44-.6 1.92zm-3.12.96c.12 0 .24-.12.36-.12l-.72-.72.96-.84.72.72.36-.72c.12-.24.24-.6.24-.96.12-.84.12-1.56-.24-2.04-.24-.48-.72-.72-1.44-.72-.6 0-1.2.24-1.68.72s-.72 1.2-.96 2.04c-.24 1.08 0 1.92.48 2.28.36.36.72.48 1.2.48.36 0 .48 0 .72-.12zM32.52 8.997h1.68l-.84 4.8c-.12.6-.12.96 0 1.2.12.48.48.72 1.2.72s1.08-.24 1.44-.72c.12-.24.24-.6.36-1.2l.84-4.8h1.68l-.84 4.92c-.12.84-.36 1.44-.72 1.92-.6.84-1.56 1.32-3 1.32-1.32 0-2.16-.48-2.52-1.32-.12-.48-.24-1.08 0-1.92l.72-4.92zM40.44 16.917h-1.68l1.32-7.92h1.68l-1.32 7.92zM43.8 9.837c.72-.6 1.56-.96 2.52-.96 1.32 0 2.16.48 2.64 1.32.24.48.36.96.24 1.44h-1.68c0-.36-.12-.72-.24-.84-.24-.36-.6-.48-1.2-.48s-1.08.24-1.56.72c-.36.48-.72 1.2-.84 2.04-.12.84-.12 1.56.24 2.04.24.48.72.72 1.2.72.6 0 1.08-.24 1.44-.6.24-.24.36-.48.6-.96h1.68c-.24.84-.72 1.56-1.44 2.16-.72.6-1.44.84-2.4.84-1.08 0-1.92-.36-2.4-1.08-.48-.72-.72-1.68-.48-3 .24-1.56.84-2.64 1.68-3.36zM51 8.997h1.56l-.6 3.24 3.6-3.24h2.16L54 12.237l2.64 4.68h-2.16l-1.8-3.48-.96.84-.48 2.64h-1.56L51 8.997zM67.2 8.997l-.24 1.44h-2.28l-1.08 6.48h-1.56l.96-6.48h-2.28l.24-1.44h6.24zM72.84 9.237c.24.12.48.36.6.6s.24.48.24.72v.84c-.12.36-.24.72-.48 1.08-.24.36-.6.6-1.08.72.36.12.6.36.6.6.12.24.12.72 0 1.2l-.12.48c0 .36-.12.6-.12.72 0 .24.12.36.24.48v.24h-1.8v-.48-.72l.12-.72c.12-.48 0-.84-.12-.96s-.48-.24-.84-.24h-1.56l-.48 3.12h-1.56l1.32-7.92h3.6c.84 0 1.2.12 1.44.24zm-3.48 1.08l-.36 2.16h1.8c.36 0 .6 0 .84-.12.36-.12.48-.48.6-.84.12-.48 0-.84-.24-.96-.12-.12-.36-.12-.72-.12h-1.92v-.12zM77.76 8.997h1.8l1.44 7.92h-1.8l-.24-1.68H76.2l-.84 1.68h-1.68l4.08-7.92zm-.96 4.92h1.92l-.48-3.12-1.44 3.12zM83.04 8.997h1.68l2.16 5.52.96-5.52h1.44l-1.32 7.92H86.4l-2.16-5.64-.96 5.64h-1.44l1.2-7.92zM90.96 14.397c0 .36 0 .6.12.84.24.36.6.48 1.32.48.36 0 .72 0 .96-.12.48-.12.72-.48.84-.96 0-.24 0-.48-.24-.6s-.48-.24-.96-.36l-.84-.24c-.84-.24-1.32-.36-1.56-.6-.48-.36-.6-.96-.48-1.68s.48-1.32 1.08-1.8c.6-.48 1.32-.72 2.28-.72.84 0 1.44.24 1.92.72s.72 1.08.6 1.92h-1.56c0-.48-.12-.84-.48-.96-.24-.12-.48-.24-.96-.24s-.72.12-1.08.24c-.24.12-.48.36-.48.72 0 .24 0 .48.24.6.12.12.48.24.96.36l1.32.36c.6.12.96.36 1.2.6.36.36.48.96.36 1.56-.12.72-.48 1.32-1.08 1.8-.6.48-1.44.72-2.4.72s-1.8-.24-2.28-.72c-.48-.48-.72-1.08-.6-1.92h1.8zM97.68 8.997h5.4l-.24 1.44H99l-.24 1.8h3.36l-.24 1.32h-3.36l-.6 3.36h-1.56l1.32-7.92zM109.44 10.437h-4.08l-.24 1.68h3.72l-.24 1.32h-3.72l-.36 2.04h4.2l-.24 1.44h-5.76l1.32-7.92h5.64l-.24 1.44zM115.92 9.237c.24.12.48.36.6.6s.24.48.24.72v.84c-.12.36-.24.72-.48 1.08-.24.36-.6.6-1.08.72.36.12.6.36.6.6.12.24.12.72 0 1.2l-.12.48c0 .36-.12.6-.12.72 0 .24.12.36.24.48v.24H114v-.48-.72l.12-.72c.12-.48 0-.84-.12-.96s-.48-.24-.84-.24h-1.56l-.48 3.12h-1.56l1.32-7.92h3.6c.72 0 1.08.12 1.44.24zm-3.6 1.08l-.36 2.16h1.68c.36 0 .6 0 .84-.12.36-.12.48-.48.6-.84.12-.48 0-.84-.24-.96-.12-.12-.36-.12-.72-.12h-1.8v-.12z"/>
    </g>
    <defs>
        <clipPath id="prefix__clip0">
            <path fill="#fff" d="M0 .935h120.002v24H0v-24z"/>
        </clipPath>
    </defs>
</svg>
