<svg xmlns="http://www.w3.org/2000/svg" width="121" height="25" fill="none" viewBox="0 0 121 25">
    <g clip-path="url(#prefix__clip0)">
        <path fill="url(#prefix__paint0_linear)" d="M119.762 1.175H.362v23.4h119.4v-23.4z"/>
        <path fill="#D3D3D3" d="M119.402 1.535v22.8H.602v-22.8h118.8zm.6-.6h-120v24h120v-24z"/>
        <path fill="#fff" d="M29.882 14.975c-.24.48-.48.84-.84 1.08l.72.84-.96.96-.84-.96c-.36.12-.6.24-.84.36-.36.12-.84.12-1.32.12-1.08 0-1.8-.36-2.4-.96-.72-.72-.96-1.8-.72-3.24.24-1.44.84-2.52 1.8-3.24.84-.6 1.68-.96 2.64-.96.96 0 1.8.36 2.4.96.72.72.84 1.8.72 3.12 0 .84-.12 1.44-.36 1.92zm-3.24 1.08c.12 0 .24-.12.36-.12l-.6-.72.96-.84.72.72.36-.72c.12-.24.24-.6.24-.96.24-.96.12-1.68-.12-2.16-.36-.48-.84-.72-1.44-.72s-1.2.24-1.68.72-.72 1.2-.96 2.04c-.24 1.08 0 1.92.48 2.28.36.36.72.48 1.2.48.12.12.36 0 .48 0zM32.162 9.455h1.68l-.84 4.8c-.12.6-.12.96 0 1.2.12.48.48.72 1.2.72s1.08-.24 1.44-.72c.12-.24.24-.6.36-1.2l.84-4.8h1.68l-.84 4.92c-.12.84-.36 1.44-.72 1.92-.6.84-1.56 1.32-3 1.32-1.32 0-2.16-.48-2.52-1.32-.12-.48-.24-1.08 0-1.92l.72-4.92zM40.082 17.375h-1.68l1.32-7.92h1.68l-1.32 7.92zM43.442 10.175c.72-.6 1.56-.96 2.52-.96 1.32 0 2.16.48 2.64 1.32.24.48.36.96.24 1.44h-1.68c0-.36-.12-.72-.24-.84-.24-.36-.6-.48-1.2-.48s-1.08.24-1.56.72c-.36.48-.72 1.2-.84 2.04-.12.84-.12 1.56.24 2.04.24.48.72.72 1.2.72.6 0 1.08-.24 1.44-.6.24-.24.36-.48.6-.96h1.68c-.24.84-.72 1.56-1.44 2.16-.72.6-1.44.84-2.4.84-1.08 0-1.92-.36-2.4-1.08-.48-.72-.72-1.68-.48-3 .36-1.44.84-2.52 1.68-3.36zM50.642 9.455h1.56l-.6 3.24 3.6-3.24h2.16l-3.72 3.24 2.64 4.68h-2.16l-1.8-3.48-.96.84-.48 2.64h-1.56l1.32-7.92zM66.842 9.455l-.24 1.44h-2.28l-1.08 6.48h-1.56l1.08-6.48h-2.28l.24-1.44h6.12zM72.602 9.575c.24.12.48.36.6.6s.24.48.24.72v.84c-.12.36-.24.72-.48 1.08-.24.36-.6.6-1.08.72.36.12.6.36.6.6.12.24.12.72 0 1.2l-.12.48c0 .36-.12.6-.12.72 0 .24.12.36.24.48v.24h-1.8v-.48-.72l.12-.72c.12-.48 0-.84-.12-.96s-.48-.24-.84-.24h-1.56l-.48 3.12h-1.56l1.32-7.92h3.6c.72.12 1.2.12 1.44.24zm-3.48 1.2l-.36 2.16h1.68c.36 0 .6 0 .84-.12.36-.12.48-.48.6-.84.12-.48 0-.84-.24-.96-.12-.12-.36-.12-.72-.12h-1.8v-.12zM77.402 9.455h1.8l1.44 7.92h-1.68l-.24-1.68h-2.76l-.84 1.68h-1.68l3.96-7.92zm-.84 4.92h1.92l-.48-3.12-1.44 3.12zM82.802 9.455h1.68l2.16 5.52.96-5.52h1.44l-1.32 7.92h-1.56l-2.28-5.64-.96 5.64h-1.44l1.32-7.92zM90.602 14.855c0 .36 0 .6.12.84.24.36.6.48 1.32.48.36 0 .72 0 .96-.12.48-.12.72-.48.84-.96 0-.24 0-.48-.24-.6s-.48-.24-.96-.36l-.84-.24c-.84-.24-1.32-.36-1.56-.6-.48-.36-.6-.96-.48-1.68s.48-1.32 1.08-1.8c.6-.48 1.32-.72 2.28-.72.84 0 1.44.24 1.92.72s.72 1.08.6 1.92h-1.56c0-.48-.12-.84-.48-.96-.12-.12-.36-.24-.84-.24s-.72.12-1.08.24c-.24.12-.48.36-.48.72 0 .24 0 .48.24.6.12.12.48.24.96.36l1.32.36c.6.12.96.36 1.2.6.36.36.48.96.36 1.56-.12.72-.48 1.32-1.08 1.8-.6.48-1.44.72-2.4.72s-1.8-.24-2.28-.72c-.48-.48-.72-1.08-.6-1.92h1.68zM97.322 9.455h5.4l-.24 1.44h-3.84l-.24 1.68h3.36l-.24 1.32h-3.36l-.6 3.36h-1.56l1.32-7.8zM109.202 10.775h-4.08l-.24 1.68h3.72l-.24 1.32h-3.72l-.36 2.04h4.2l-.24 1.44h-5.76l1.32-7.92h5.64l-.24 1.44zM115.562 9.575c.24.12.48.36.6.6s.24.36.36.6v.84c-.12.36-.24.72-.48 1.08-.24.36-.6.6-1.08.72.36.12.6.36.6.6.12.24.12.72 0 1.2l-.12.48c0 .36-.12.6-.12.72 0 .24.12.36.24.48v.24h-1.8v-.48-.72l.12-.72c.12-.48 0-.84-.12-.96s-.48-.24-.84-.24h-1.56l-.48 3.12h-1.56l1.32-7.92h3.6c.72.24 1.08.24 1.32.36zm-3.48 1.2l-.36 2.16h1.68c.36 0 .6 0 .84-.12.36-.12.48-.48.6-.84.12-.48 0-.84-.24-.96-.12-.12-.36-.12-.72-.12h-1.8v-.12z"/>
        <path fill="url(#prefix__paint1_linear)" d="M30.122 14.734c-.24.48-.48.84-.84 1.08l.72.84-.96.84-.84-.96c-.36.12-.6.24-.84.36-.36.12-.84.12-1.32.12-1.08 0-1.8-.36-2.4-.96-.72-.72-.96-1.8-.72-3.24.48-1.2 1.08-2.28 2.04-3.12.84-.6 1.68-.96 2.64-.96.96 0 1.8.36 2.4.96.72.72.84 1.8.72 3.12-.12.84-.36 1.44-.6 1.92zm-3.12.96c.12 0 .24-.12.36-.12l-.72-.72.96-.84.72.72.36-.72c.12-.24.24-.6.24-.96.12-.84.12-1.56-.24-2.04-.24-.48-.72-.72-1.44-.72-.6 0-1.2.24-1.68.72s-.72 1.2-.96 2.04c-.24 1.08 0 1.92.48 2.28.36.36.72.48 1.2.48.36 0 .48 0 .72-.12z"/>
        <path fill="url(#prefix__paint2_linear)" d="M32.522 9.094h1.68l-.84 4.8c-.12.6-.12.96 0 1.2.12.48.48.72 1.2.72s1.08-.24 1.44-.72c.12-.24.24-.6.36-1.2l.84-4.8h1.68l-.84 4.92c-.12.84-.36 1.44-.72 1.92-.6.84-1.56 1.32-3 1.32-1.32 0-2.16-.48-2.52-1.32-.12-.48-.24-1.08 0-1.92l.72-4.92z"/>
        <path fill="url(#prefix__paint3_linear)" d="M40.442 17.014h-1.68l1.32-7.92h1.68l-1.32 7.92z"/>
        <path fill="url(#prefix__paint4_linear)" d="M43.802 9.935c.72-.6 1.56-.96 2.52-.96 1.32 0 2.16.48 2.64 1.32.24.48.36.96.24 1.44h-1.68c0-.36-.12-.72-.24-.84-.24-.36-.6-.48-1.2-.48s-1.08.24-1.56.72c-.36.48-.72 1.2-.84 2.04-.12.84-.12 1.56.24 2.04.24.48.72.72 1.2.72.6 0 1.08-.24 1.44-.6.24-.24.36-.48.6-.96h1.68c-.24.84-.72 1.56-1.44 2.16-.72.6-1.44.84-2.4.84-1.08 0-1.92-.36-2.4-1.08-.48-.72-.72-1.68-.48-3 .24-1.56.84-2.64 1.68-3.36z"/>
        <path fill="url(#prefix__paint5_linear)" d="M51.002 9.094h1.56l-.6 3.24 3.6-3.24h2.16l-3.72 3.24 2.64 4.68h-2.16l-1.8-3.48-.96.84-.48 2.64h-1.56l1.32-7.92z"/>
        <path fill="url(#prefix__paint6_linear)" d="M67.202 9.094l-.24 1.44h-2.28l-1.08 6.48h-1.56l.96-6.48h-2.28l.24-1.44h6.24z"/>
        <path fill="url(#prefix__paint7_linear)" d="M72.842 9.334c.24.12.48.36.6.6s.24.48.24.72v.84c-.12.36-.24.72-.48 1.08-.24.36-.6.6-1.08.72.36.12.6.36.6.6.12.24.12.72 0 1.2l-.12.48c0 .36-.12.6-.12.72 0 .24.12.36.24.48v.24h-1.8v-.48-.72l.12-.72c.12-.48 0-.84-.12-.96s-.48-.24-.84-.24h-1.56l-.48 3.12h-1.56l1.32-7.92h3.6c.84 0 1.2.12 1.44.24zm-3.48 1.08l-.36 2.16h1.8c.36 0 .6 0 .84-.12.36-.12.48-.48.6-.84.12-.48 0-.84-.24-.96-.12-.12-.36-.12-.72-.12h-1.92v-.12z"/>
        <path fill="url(#prefix__paint8_linear)" d="M77.762 9.094h1.8l1.44 7.92h-1.8l-.24-1.68h-2.76l-.84 1.68h-1.68l4.08-7.92zm-.96 4.92h1.92l-.48-3.12-1.44 3.12z"/>
        <path fill="url(#prefix__paint9_linear)" d="M83.042 9.094h1.68l2.16 5.52.96-5.52h1.44l-1.32 7.92h-1.56l-2.16-5.64-.96 5.64h-1.44l1.2-7.92z"/>
        <path fill="url(#prefix__paint10_linear)" d="M90.962 14.494c0 .36 0 .6.12.84.24.36.6.48 1.32.48.36 0 .72 0 .96-.12.48-.12.72-.48.84-.96 0-.24 0-.48-.24-.6s-.48-.24-.96-.36l-.84-.24c-.84-.24-1.32-.36-1.56-.6-.48-.36-.6-.96-.48-1.68s.48-1.32 1.08-1.8c.6-.48 1.32-.72 2.28-.72.84 0 1.44.24 1.92.72s.72 1.08.6 1.92h-1.56c0-.48-.12-.84-.48-.96-.24-.12-.48-.24-.96-.24s-.72.12-1.08.24c-.24.12-.48.36-.48.72 0 .24 0 .48.24.6.12.12.48.24.96.36l1.32.36c.6.12.96.36 1.2.6.36.36.48.96.36 1.56-.12.72-.48 1.32-1.08 1.8-.6.48-1.44.72-2.4.72s-1.8-.24-2.28-.72c-.48-.48-.72-1.08-.6-1.92h1.8z"/>
        <path fill="url(#prefix__paint11_linear)" d="M97.682 9.094h5.4l-.24 1.44h-3.84l-.24 1.8h3.36l-.24 1.32h-3.36l-.6 3.36h-1.56l1.32-7.92z"/>
        <path fill="url(#prefix__paint12_linear)" d="M109.442 10.534h-4.08l-.24 1.68h3.72l-.24 1.32h-3.72l-.36 2.04h4.2l-.24 1.44h-5.76l1.32-7.92h5.64l-.24 1.44z"/>
        <path fill="url(#prefix__paint13_linear)" d="M115.922 9.334c.24.12.48.36.6.6s.24.48.24.72v.84c-.12.36-.24.72-.48 1.08-.24.36-.6.6-1.08.72.36.12.6.36.6.6s.12.72 0 1.2l-.12.48c0 .36-.12.6-.12.72 0 .24.12.36.24.48v.24h-1.8v-.48-.72l.12-.72c.12-.48 0-.84-.12-.96s-.48-.24-.84-.24h-1.56l-.48 3.12h-1.56l1.32-7.92h3.6c.72 0 1.08.12 1.44.24zm-3.6 1.08l-.36 2.16h1.68c.36 0 .6 0 .84-.12.36-.12.48-.48.6-.84.12-.48 0-.84-.24-.96-.12-.12-.36-.12-.72-.12h-1.8v-.12z"/>
        <path fill="url(#prefix__paint14_linear)" d="M22.442 9.215c-.36 0-.6.12-.72.36-.12-.24-.36-.36-.72-.36s-.6.24-.72.48c-.12-.24-.36-.36-.72-.36s-.6.24-.72.48c-.24-.36-.48-.48-.72-.48-.36 0-.6.24-.72.6-.24-.36-.48-.6-.84-.6s-.72.36-.72.72.24.72.6.72c-.36 0-.6.36-.6.72s.24.72.6.72c-.36 0-.6.36-.6.72s.24.72.6.72c-.36 0-.6.36-.6.72s.24.72.6.72c-.36 0-.6.36-.6.72s.36.72.72.72.6-.24.72-.48c.12.36.36.6.72.6s.6-.12.72-.48c.12.24.48.48.72.48s.6-.12.72-.36c.12.24.48.48.72.48s.6-.12.72-.36c.12.24.48.36.72.36h.12c-.36-.72-.72-1.68-.72-3l-.12.12-.24-.24c.12 0 .12-.12.24-.24l.12.12c.12-2.04 1.2-3.6 1.92-4.44-.24 0-.48.12-.6.36 0-.12-.36-.24-.6-.24zm-5.16 1.08c.12.24.24.36.48.48-.24.12-.36.24-.48.48-.12-.24-.36-.48-.6-.48.36 0 .6-.24.6-.48zm0 1.44c.12.24.24.36.48.48-.24.12-.36.24-.48.48-.12-.24-.36-.48-.6-.48.36 0 .6-.12.6-.48zm0 3.96c-.12-.24-.36-.48-.6-.48.24 0 .48-.24.6-.48.12.24.24.36.48.48-.24 0-.36.24-.48.48zm0-1.44c-.12-.24-.36-.48-.6-.48.24 0 .48-.24.6-.48.12.24.24.36.48.48-.24 0-.36.24-.48.48zm1.44-3.84l.36.36-.36.36-.36-.36c.24 0 .36-.12.36-.36zm0 1.44l.36.36-.36.36-.36-.36c.24 0 .36-.12.36-.36zm0 3.72l-.36-.36.36-.36.36.36c-.12 0-.24.12-.36.36zm0-1.44l-.36-.36.36-.36.36.36c-.12 0-.24.12-.36.36zm1.56 1.32c-.12-.12-.12-.24-.24-.24.12-.12.24-.12.24-.24.12.12.12.24.24.24-.12 0-.24.12-.24.24zm0-1.44c-.12-.12-.12-.24-.24-.24.12-.12.24-.12.24-.24.12.12.12.24.24.24-.12 0-.24.12-.24.24zm0-1.44c-.12-.12-.12-.24-.24-.24.12-.12.24-.12.24-.24.12.12.12.24.24.24-.12 0-.24.12-.24.24zm0-1.44c-.12-.12-.12-.24-.24-.24.12-.12.24-.12.24-.24.12.12.12.24.24.24-.12 0-.24.12-.24.24zm1.44 3.84c0 .12.12.12.24.24-.12 0-.12.12-.24.24-.12-.12-.12-.24-.24-.24l.24-.24zm0-2.52c-.12 0-.12-.12-.24-.24.12 0 .12-.12.24-.24 0 .12.12.12.24.24l-.24.24zm0-1.44l-.24-.24c.12 0 .12-.12.24-.24 0 .12.12.12.24.24-.12.12-.24.12-.24.24z"/>
        <path fill="url(#prefix__paint15_linear)" d="M15.122 9.455c-.36 0-.72.36-.72.72s.36.72.72.72.72-.36.72-.72c0-.48-.36-.72-.72-.72z"/>
        <path fill="url(#prefix__paint16_linear)" d="M15.122 10.895c-.36 0-.72.36-.72.72s.36.72.72.72.72-.36.72-.72c0-.48-.36-.72-.72-.72z"/>
        <path fill="url(#prefix__paint17_linear)" d="M15.122 12.335c-.36 0-.72.36-.72.72s.36.72.72.72.72-.36.72-.72-.36-.72-.72-.72z"/>
        <path fill="url(#prefix__paint18_linear)" d="M15.122 15.215c.398 0 .72-.322.72-.72 0-.398-.322-.72-.72-.72-.398 0-.72.322-.72.72 0 .398.322.72.72.72z"/>
        <path fill="url(#prefix__paint19_linear)" d="M15.122 16.655c.398 0 .72-.323.72-.72 0-.398-.322-.72-.72-.72-.398 0-.72.322-.72.72 0 .397.322.72.72.72z"/>
        <path fill="url(#prefix__paint20_linear)" d="M13.681 9.455c-.36 0-.6.24-.6.6s.24.6.6.6.6-.24.6-.6-.24-.6-.6-.6z"/>
        <path fill="url(#prefix__paint21_linear)" d="M13.681 10.895c-.36 0-.6.24-.6.6s.24.6.6.6.6-.24.6-.6c0-.24-.24-.6-.6-.6z"/>
        <path fill="url(#prefix__paint22_linear)" d="M13.681 13.655c.332 0 .6-.269.6-.6 0-.332-.268-.6-.6-.6-.33 0-.6.268-.6.6 0 .331.27.6.6.6z"/>
        <path fill="url(#prefix__paint23_linear)" d="M13.681 15.095c.332 0 .6-.27.6-.6 0-.332-.268-.6-.6-.6-.33 0-.6.268-.6.6 0 .33.27.6.6.6z"/>
        <path fill="url(#prefix__paint24_linear)" d="M13.681 16.535c.332 0 .6-.27.6-.6 0-.332-.268-.6-.6-.6-.33 0-.6.268-.6.6 0 .33.27.6.6.6z"/>
        <path fill="url(#prefix__paint25_linear)" d="M12.242 9.575c-.36 0-.6.24-.6.6s.24.6.6.6.6-.24.6-.6-.24-.6-.6-.6z"/>
        <path fill="url(#prefix__paint26_linear)" d="M12.242 11.015c-.36 0-.6.24-.6.6s.24.6.6.6.6-.24.6-.6-.24-.6-.6-.6z"/>
        <path fill="url(#prefix__paint27_linear)" d="M12.242 12.455c-.36 0-.6.24-.6.6s.24.6.6.6.6-.24.6-.6-.24-.6-.6-.6z"/>
        <path fill="url(#prefix__paint28_linear)" d="M12.242 13.895c-.36 0-.6.24-.6.6s.24.6.6.6.6-.24.6-.6-.24-.6-.6-.6z"/>
        <path fill="url(#prefix__paint29_linear)" d="M12.242 15.335c-.36 0-.6.24-.6.6s.24.6.6.6.6-.24.6-.6-.24-.6-.6-.6z"/>
        <path fill="url(#prefix__paint30_linear)" d="M10.802 9.575c-.24 0-.48.24-.48.48 0 .36.24.48.48.48s.48-.24.48-.48-.24-.48-.48-.48z"/>
        <path fill="url(#prefix__paint31_linear)" d="M10.802 11.015c-.24 0-.48.24-.48.48s.24.48.48.48.48-.24.48-.48-.24-.48-.48-.48z"/>
        <path fill="url(#prefix__paint32_linear)" d="M10.802 12.455c-.24 0-.48.24-.48.48s.24.48.48.48.48-.24.48-.48-.24-.48-.48-.48z"/>
        <path fill="url(#prefix__paint33_linear)" d="M10.802 14.015c-.24 0-.48.24-.48.48s.24.48.48.48.48-.24.48-.48-.24-.48-.48-.48z"/>
        <path fill="url(#prefix__paint34_linear)" d="M10.802 15.455c-.24 0-.48.24-.48.48s.24.48.48.48.48-.24.48-.48-.24-.48-.48-.48z"/>
        <path fill="url(#prefix__paint35_linear)" d="M9.362 9.695c-.24 0-.36.24-.36.36-.12.24.12.48.36.48s.36-.24.36-.48-.12-.36-.36-.36z"/>
        <path fill="url(#prefix__paint36_linear)" d="M9.362 11.135c-.24 0-.36.24-.36.36 0 .24.24.36.36.36.24.12.36-.12.36-.36s-.12-.36-.36-.36z"/>
        <path fill="url(#prefix__paint37_linear)" d="M9.362 13.415c.199 0 .36-.161.36-.36 0-.199-.161-.36-.36-.36-.199 0-.36.161-.36.36 0 .199.161.36.36.36z"/>
        <path fill="url(#prefix__paint38_linear)" d="M9.362 14.855c.199 0 .36-.161.36-.36 0-.2-.161-.36-.36-.36-.199 0-.36.16-.36.36 0 .199.161.36.36.36z"/>
        <path fill="url(#prefix__paint39_linear)" d="M9.362 16.295c.199 0 .36-.162.36-.36 0-.2-.161-.36-.36-.36-.199 0-.36.16-.36.36 0 .199.161.36.36.36z"/>
        <path fill="url(#prefix__paint40_linear)" d="M7.922 9.695c-.24 0-.36.12-.36.36s.12.36.36.36.36-.12.36-.36c-.12-.12-.24-.36-.36-.36z"/>
        <path fill="url(#prefix__paint41_linear)" d="M7.922 11.255c-.24 0-.36.12-.36.36s.12.36.36.36.24-.24.24-.48-.12-.24-.24-.24z"/>
        <path fill="url(#prefix__paint42_linear)" d="M7.922 13.415c.198 0 .36-.161.36-.36 0-.199-.162-.36-.36-.36-.2 0-.36.161-.36.36 0 .199.16.36.36.36z"/>
        <path fill="url(#prefix__paint43_linear)" d="M7.922 14.855c.198 0 .36-.161.36-.36 0-.2-.162-.36-.36-.36-.2 0-.36.16-.36.36 0 .199.16.36.36.36z"/>
        <path fill="url(#prefix__paint44_linear)" d="M7.922 16.295c.198 0 .36-.162.36-.36 0-.2-.162-.36-.36-.36-.2 0-.36.16-.36.36 0 .199.16.36.36.36z"/>
        <path fill="url(#prefix__paint45_linear)" d="M6.482 9.815c-.12 0-.24.12-.24.24s.12.24.24.24.24-.12.24-.24-.12-.24-.24-.24z"/>
        <path fill="url(#prefix__paint46_linear)" d="M6.482 11.735c.132 0 .24-.108.24-.24 0-.133-.108-.24-.24-.24-.133 0-.24.107-.24.24 0 .132.107.24.24.24z"/>
        <path fill="url(#prefix__paint47_linear)" d="M6.482 13.295c.132 0 .24-.107.24-.24s-.108-.24-.24-.24c-.133 0-.24.107-.24.24s.107.24.24.24z"/>
        <path fill="url(#prefix__paint48_linear)" d="M6.482 14.735c.132 0 .24-.108.24-.24 0-.133-.108-.24-.24-.24-.133 0-.24.107-.24.24 0 .132.107.24.24.24z"/>
        <path fill="url(#prefix__paint49_linear)" d="M6.482 16.175c.132 0 .24-.108.24-.24 0-.133-.108-.24-.24-.24-.133 0-.24.107-.24.24 0 .132.107.24.24.24z"/>
        <path fill="url(#prefix__paint50_linear)" d="M4.922 9.935s-.12 0-.12.12.12.12.12.12l.12-.12c.12-.12 0-.12-.12-.12z"/>
        <path fill="url(#prefix__paint51_linear)" d="M4.922 11.374l-.12.12.12.24.12-.12s0-.24-.12-.24z"/>
        <path fill="url(#prefix__paint52_linear)" d="M4.922 12.815s-.12.12-.12.24.12.12.12.12l.12-.12s0-.24-.12-.24z"/>
        <path fill="url(#prefix__paint53_linear)" d="M4.922 14.614c.066 0 .12-.053.12-.12 0-.066-.054-.12-.12-.12-.067 0-.12.054-.12.12 0 .067.053.12.12.12z"/>
        <path fill="url(#prefix__paint54_linear)" d="M4.922 16.055c.066 0 .12-.054.12-.12s-.054-.12-.12-.12c-.067 0-.12.054-.12.12s.053.12.12.12z"/>
        <path fill="url(#prefix__paint55_linear)" d="M3.482 10.055c0 .12 0 .12 0 0 .12.12.12.12.12 0h-.12z"/>
        <path fill="url(#prefix__paint56_linear)" d="M3.482 11.495c0 .12 0 .12 0 0 .12.12.12.12.12 0h-.12z"/>
        <path fill="url(#prefix__paint57_linear)" d="M3.482 13.055c.12.12.24 0 .24 0-.12-.12-.12-.12-.24 0 0-.12 0-.12 0 0z"/>
        <path fill="url(#prefix__paint58_linear)" d="M3.482 14.495c.12.12.24 0 .24 0s-.12-.12-.24 0c0-.12 0-.12 0 0z"/>
        <path fill="url(#prefix__paint59_linear)" d="M3.482 15.935s0 .12 0 0c.12.12.24 0 .24 0-.12-.12-.12-.12-.24 0 0-.12 0-.12 0 0z"/>
    </g>
    <defs>
        <linearGradient id="prefix__paint0_linear" x1="60.002" x2="60.002" y1="1.896" y2="23.88" gradientUnits="userSpaceOnUse">
            <stop stop-color="#fff"/>
            <stop offset=".506" stop-color="#EFF7F7"/>
            <stop offset="1" stop-color="#C6C6C6"/>
        </linearGradient>
        <linearGradient id="prefix__paint1_linear" x1="26.907" x2="26.907" y1="14.981" y2="9.191" gradientUnits="userSpaceOnUse">
            <stop stop-color="#2F70AC"/>
            <stop offset="1" stop-color="#41B1FC"/>
        </linearGradient>
        <linearGradient id="prefix__paint2_linear" x1="35.172" x2="35.172" y1="14.981" y2="9.191" gradientUnits="userSpaceOnUse">
            <stop stop-color="#2F70AC"/>
            <stop offset="1" stop-color="#41B1FC"/>
        </linearGradient>
        <linearGradient id="prefix__paint3_linear" x1="40.267" x2="40.267" y1="14.981" y2="9.191" gradientUnits="userSpaceOnUse">
            <stop stop-color="#2F70AC"/>
            <stop offset="1" stop-color="#41B1FC"/>
        </linearGradient>
        <linearGradient id="prefix__paint4_linear" x1="45.691" x2="45.691" y1="14.981" y2="9.192" gradientUnits="userSpaceOnUse">
            <stop stop-color="#2F70AC"/>
            <stop offset="1" stop-color="#41B1FC"/>
        </linearGradient>
        <linearGradient id="prefix__paint5_linear" x1="53.697" x2="53.697" y1="14.981" y2="9.191" gradientUnits="userSpaceOnUse">
            <stop stop-color="#2F70AC"/>
            <stop offset="1" stop-color="#41B1FC"/>
        </linearGradient>
        <linearGradient id="prefix__paint6_linear" x1="63.97" x2="63.97" y1="14.183" y2="8.9" gradientUnits="userSpaceOnUse">
            <stop stop-color="#812013"/>
            <stop offset="1" stop-color="#D84B49"/>
        </linearGradient>
        <linearGradient id="prefix__paint7_linear" x1="70.279" x2="70.279" y1="14.183" y2="8.9" gradientUnits="userSpaceOnUse">
            <stop stop-color="#812013"/>
            <stop offset="1" stop-color="#D84B49"/>
        </linearGradient>
        <linearGradient id="prefix__paint8_linear" x1="77.346" x2="77.346" y1="14.183" y2="8.9" gradientUnits="userSpaceOnUse">
            <stop stop-color="#812013"/>
            <stop offset="1" stop-color="#D84B49"/>
        </linearGradient>
        <linearGradient id="prefix__paint9_linear" x1="85.547" x2="85.547" y1="14.183" y2="8.9" gradientUnits="userSpaceOnUse">
            <stop stop-color="#812013"/>
            <stop offset="1" stop-color="#D84B49"/>
        </linearGradient>
        <linearGradient id="prefix__paint10_linear" x1="92.706" x2="92.706" y1="14.183" y2="8.9" gradientUnits="userSpaceOnUse">
            <stop stop-color="#812013"/>
            <stop offset="1" stop-color="#D84B49"/>
        </linearGradient>
        <linearGradient id="prefix__paint11_linear" x1="99.728" x2="99.728" y1="14.183" y2="8.9" gradientUnits="userSpaceOnUse">
            <stop stop-color="#812013"/>
            <stop offset="1" stop-color="#D84B49"/>
        </linearGradient>
        <linearGradient id="prefix__paint12_linear" x1="106.23" x2="106.23" y1="14.183" y2="8.9" gradientUnits="userSpaceOnUse">
            <stop stop-color="#812013"/>
            <stop offset="1" stop-color="#D84B49"/>
        </linearGradient>
        <linearGradient id="prefix__paint13_linear" x1="113.275" x2="113.275" y1="14.183" y2="8.9" gradientUnits="userSpaceOnUse">
            <stop stop-color="#812013"/>
            <stop offset="1" stop-color="#D84B49"/>
        </linearGradient>
        <linearGradient id="prefix__paint14_linear" x1="24769.7" x2="2448.71" y1="12.998" y2="12.998" gradientUnits="userSpaceOnUse">
            <stop stop-color="#2F70AC"/>
            <stop offset="1" stop-color="#41B1FC"/>
        </linearGradient>
        <linearGradient id="prefix__paint15_linear" x1="3830.91" x2="389.555" y1="10.088" y2="10.088" gradientUnits="userSpaceOnUse">
            <stop stop-color="#2F70AC"/>
            <stop offset="1" stop-color="#41B1FC"/>
        </linearGradient>
        <linearGradient id="prefix__paint16_linear" x1="3830.91" x2="389.555" y1="11.543" y2="11.543" gradientUnits="userSpaceOnUse">
            <stop stop-color="#2F70AC"/>
            <stop offset="1" stop-color="#41B1FC"/>
        </linearGradient>
        <linearGradient id="prefix__paint17_linear" x1="3830.91" x2="389.555" y1="12.998" y2="12.998" gradientUnits="userSpaceOnUse">
            <stop stop-color="#2F70AC"/>
            <stop offset="1" stop-color="#41B1FC"/>
        </linearGradient>
        <linearGradient id="prefix__paint18_linear" x1="3830.91" x2="389.555" y1="14.454" y2="14.454" gradientUnits="userSpaceOnUse">
            <stop stop-color="#2F70AC"/>
            <stop offset="1" stop-color="#41B1FC"/>
        </linearGradient>
        <linearGradient id="prefix__paint19_linear" x1="3830.91" x2="389.555" y1="15.909" y2="15.909" gradientUnits="userSpaceOnUse">
            <stop stop-color="#2F70AC"/>
            <stop offset="1" stop-color="#41B1FC"/>
        </linearGradient>
        <linearGradient id="prefix__paint20_linear" x1="3494.9" x2="355.274" y1="10.088" y2="10.088" gradientUnits="userSpaceOnUse">
            <stop stop-color="#2F70AC"/>
            <stop offset="1" stop-color="#41B1FC"/>
        </linearGradient>
        <linearGradient id="prefix__paint21_linear" x1="3494.9" x2="355.274" y1="11.543" y2="11.543" gradientUnits="userSpaceOnUse">
            <stop stop-color="#2F70AC"/>
            <stop offset="1" stop-color="#41B1FC"/>
        </linearGradient>
        <linearGradient id="prefix__paint22_linear" x1="3494.9" x2="355.274" y1="12.999" y2="12.999" gradientUnits="userSpaceOnUse">
            <stop stop-color="#2F70AC"/>
            <stop offset="1" stop-color="#41B1FC"/>
        </linearGradient>
        <linearGradient id="prefix__paint23_linear" x1="3494.9" x2="355.274" y1="14.454" y2="14.454" gradientUnits="userSpaceOnUse">
            <stop stop-color="#2F70AC"/>
            <stop offset="1" stop-color="#41B1FC"/>
        </linearGradient>
        <linearGradient id="prefix__paint24_linear" x1="3494.9" x2="355.274" y1="15.909" y2="15.909" gradientUnits="userSpaceOnUse">
            <stop stop-color="#2F70AC"/>
            <stop offset="1" stop-color="#41B1FC"/>
        </linearGradient>
        <linearGradient id="prefix__paint25_linear" x1="3114.14" x2="316.601" y1="10.088" y2="10.088" gradientUnits="userSpaceOnUse">
            <stop stop-color="#2F70AC"/>
            <stop offset="1" stop-color="#41B1FC"/>
        </linearGradient>
        <linearGradient id="prefix__paint26_linear" x1="3114.14" x2="316.601" y1="11.543" y2="11.543" gradientUnits="userSpaceOnUse">
            <stop stop-color="#2F70AC"/>
            <stop offset="1" stop-color="#41B1FC"/>
        </linearGradient>
        <linearGradient id="prefix__paint27_linear" x1="3114.14" x2="316.601" y1="12.998" y2="12.998" gradientUnits="userSpaceOnUse">
            <stop stop-color="#2F70AC"/>
            <stop offset="1" stop-color="#41B1FC"/>
        </linearGradient>
        <linearGradient id="prefix__paint28_linear" x1="3114.14" x2="316.601" y1="14.454" y2="14.454" gradientUnits="userSpaceOnUse">
            <stop stop-color="#2F70AC"/>
            <stop offset="1" stop-color="#41B1FC"/>
        </linearGradient>
        <linearGradient id="prefix__paint29_linear" x1="3114.14" x2="316.601" y1="15.909" y2="15.909" gradientUnits="userSpaceOnUse">
            <stop stop-color="#2F70AC"/>
            <stop offset="1" stop-color="#41B1FC"/>
        </linearGradient>
        <linearGradient id="prefix__paint30_linear" x1="2733.17" x2="277.909" y1="10.088" y2="10.088" gradientUnits="userSpaceOnUse">
            <stop stop-color="#2F70AC"/>
            <stop offset="1" stop-color="#41B1FC"/>
        </linearGradient>
        <linearGradient id="prefix__paint31_linear" x1="2733.17" x2="277.909" y1="11.543" y2="11.543" gradientUnits="userSpaceOnUse">
            <stop stop-color="#2F70AC"/>
            <stop offset="1" stop-color="#41B1FC"/>
        </linearGradient>
        <linearGradient id="prefix__paint32_linear" x1="2733.17" x2="277.909" y1="12.999" y2="12.999" gradientUnits="userSpaceOnUse">
            <stop stop-color="#2F70AC"/>
            <stop offset="1" stop-color="#41B1FC"/>
        </linearGradient>
        <linearGradient id="prefix__paint33_linear" x1="2733.17" x2="277.909" y1="14.454" y2="14.454" gradientUnits="userSpaceOnUse">
            <stop stop-color="#2F70AC"/>
            <stop offset="1" stop-color="#41B1FC"/>
        </linearGradient>
        <linearGradient id="prefix__paint34_linear" x1="2733.17" x2="277.909" y1="15.909" y2="15.909" gradientUnits="userSpaceOnUse">
            <stop stop-color="#2F70AC"/>
            <stop offset="1" stop-color="#41B1FC"/>
        </linearGradient>
        <linearGradient id="prefix__paint35_linear" x1="2307.86" x2="234.865" y1="10.088" y2="10.088" gradientUnits="userSpaceOnUse">
            <stop stop-color="#2F70AC"/>
            <stop offset="1" stop-color="#41B1FC"/>
        </linearGradient>
        <linearGradient id="prefix__paint36_linear" x1="2307.86" x2="234.866" y1="11.543" y2="11.543" gradientUnits="userSpaceOnUse">
            <stop stop-color="#2F70AC"/>
            <stop offset="1" stop-color="#41B1FC"/>
        </linearGradient>
        <linearGradient id="prefix__paint37_linear" x1="2307.86" x2="234.866" y1="12.999" y2="12.999" gradientUnits="userSpaceOnUse">
            <stop stop-color="#2F70AC"/>
            <stop offset="1" stop-color="#41B1FC"/>
        </linearGradient>
        <linearGradient id="prefix__paint38_linear" x1="2307.86" x2="234.866" y1="14.454" y2="14.454" gradientUnits="userSpaceOnUse">
            <stop stop-color="#2F70AC"/>
            <stop offset="1" stop-color="#41B1FC"/>
        </linearGradient>
        <linearGradient id="prefix__paint39_linear" x1="2307.86" x2="234.866" y1="15.909" y2="15.909" gradientUnits="userSpaceOnUse">
            <stop stop-color="#2F70AC"/>
            <stop offset="1" stop-color="#41B1FC"/>
        </linearGradient>
        <linearGradient id="prefix__paint40_linear" x1="1882.34" x2="191.801" y1="10.088" y2="10.088" gradientUnits="userSpaceOnUse">
            <stop stop-color="#2F70AC"/>
            <stop offset="1" stop-color="#41B1FC"/>
        </linearGradient>
        <linearGradient id="prefix__paint41_linear" x1="1882.34" x2="191.802" y1="11.544" y2="11.544" gradientUnits="userSpaceOnUse">
            <stop stop-color="#2F70AC"/>
            <stop offset="1" stop-color="#41B1FC"/>
        </linearGradient>
        <linearGradient id="prefix__paint42_linear" x1="1882.34" x2="191.801" y1="12.999" y2="12.999" gradientUnits="userSpaceOnUse">
            <stop stop-color="#2F70AC"/>
            <stop offset="1" stop-color="#41B1FC"/>
        </linearGradient>
        <linearGradient id="prefix__paint43_linear" x1="1882.34" x2="191.801" y1="14.454" y2="14.454" gradientUnits="userSpaceOnUse">
            <stop stop-color="#2F70AC"/>
            <stop offset="1" stop-color="#41B1FC"/>
        </linearGradient>
        <linearGradient id="prefix__paint44_linear" x1="1882.34" x2="191.801" y1="15.909" y2="15.909" gradientUnits="userSpaceOnUse">
            <stop stop-color="#2F70AC"/>
            <stop offset="1" stop-color="#41B1FC"/>
        </linearGradient>
        <linearGradient id="prefix__paint45_linear" x1="1434.55" x2="146.552" y1="10.088" y2="10.088" gradientUnits="userSpaceOnUse">
            <stop stop-color="#2F70AC"/>
            <stop offset="1" stop-color="#41B1FC"/>
        </linearGradient>
        <linearGradient id="prefix__paint46_linear" x1="1434.55" x2="146.552" y1="11.544" y2="11.544" gradientUnits="userSpaceOnUse">
            <stop stop-color="#2F70AC"/>
            <stop offset="1" stop-color="#41B1FC"/>
        </linearGradient>
        <linearGradient id="prefix__paint47_linear" x1="1434.55" x2="146.552" y1="12.999" y2="12.999" gradientUnits="userSpaceOnUse">
            <stop stop-color="#2F70AC"/>
            <stop offset="1" stop-color="#41B1FC"/>
        </linearGradient>
        <linearGradient id="prefix__paint48_linear" x1="1434.55" x2="146.552" y1="14.454" y2="14.454" gradientUnits="userSpaceOnUse">
            <stop stop-color="#2F70AC"/>
            <stop offset="1" stop-color="#41B1FC"/>
        </linearGradient>
        <linearGradient id="prefix__paint49_linear" x1="1434.55" x2="146.552" y1="15.909" y2="15.909" gradientUnits="userSpaceOnUse">
            <stop stop-color="#2F70AC"/>
            <stop offset="1" stop-color="#41B1FC"/>
        </linearGradient>
        <linearGradient id="prefix__paint50_linear" x1="986.753" x2="101.303" y1="10.088" y2="10.088" gradientUnits="userSpaceOnUse">
            <stop stop-color="#2F70AC"/>
            <stop offset="1" stop-color="#41B1FC"/>
        </linearGradient>
        <linearGradient id="prefix__paint51_linear" x1="986.753" x2="101.303" y1="11.543" y2="11.543" gradientUnits="userSpaceOnUse">
            <stop stop-color="#2F70AC"/>
            <stop offset="1" stop-color="#41B1FC"/>
        </linearGradient>
        <linearGradient id="prefix__paint52_linear" x1="986.753" x2="101.303" y1="12.999" y2="12.999" gradientUnits="userSpaceOnUse">
            <stop stop-color="#2F70AC"/>
            <stop offset="1" stop-color="#41B1FC"/>
        </linearGradient>
        <linearGradient id="prefix__paint53_linear" x1="986.753" x2="101.303" y1="14.454" y2="14.454" gradientUnits="userSpaceOnUse">
            <stop stop-color="#2F70AC"/>
            <stop offset="1" stop-color="#41B1FC"/>
        </linearGradient>
        <linearGradient id="prefix__paint54_linear" x1="986.753" x2="101.303" y1="15.909" y2="15.909" gradientUnits="userSpaceOnUse">
            <stop stop-color="#2F70AC"/>
            <stop offset="1" stop-color="#41B1FC"/>
        </linearGradient>
        <linearGradient id="prefix__paint55_linear" x1="516.886" x2="53.888" y1="10.088" y2="10.088" gradientUnits="userSpaceOnUse">
            <stop stop-color="#2F70AC"/>
            <stop offset="1" stop-color="#41B1FC"/>
        </linearGradient>
        <linearGradient id="prefix__paint56_linear" x1="516.886" x2="53.888" y1="11.543" y2="11.543" gradientUnits="userSpaceOnUse">
            <stop stop-color="#2F70AC"/>
            <stop offset="1" stop-color="#41B1FC"/>
        </linearGradient>
        <linearGradient id="prefix__paint57_linear" x1="516.886" x2="53.888" y1="12.999" y2="12.999" gradientUnits="userSpaceOnUse">
            <stop stop-color="#2F70AC"/>
            <stop offset="1" stop-color="#41B1FC"/>
        </linearGradient>
        <linearGradient id="prefix__paint58_linear" x1="516.886" x2="53.888" y1="14.454" y2="14.454" gradientUnits="userSpaceOnUse">
            <stop stop-color="#2F70AC"/>
            <stop offset="1" stop-color="#41B1FC"/>
        </linearGradient>
        <linearGradient id="prefix__paint59_linear" x1="516.886" x2="53.888" y1="15.909" y2="15.909" gradientUnits="userSpaceOnUse">
            <stop stop-color="#2F70AC"/>
            <stop offset="1" stop-color="#41B1FC"/>
        </linearGradient>
        <clipPath id="prefix__clip0">
            <path fill="#fff" d="M.002.935h120v24h-120v-24z"/>
        </clipPath>
    </defs>
</svg>
